<svg version="1.1" id="Layer_1" xmlns:sketch="http://www.bohemiancoding.com/sketch/ns"
	 xmlns="http://www.w3.org/2000/svg" xmlns:xlink="http://www.w3.org/1999/xlink" x="0px" y="0px" width="266px" height="47px"
	 viewBox="0 0 266 47" enable-background="new 0 0 266 47" xml:space="preserve">
<title>Page 1</title>
<desc>Created with Sketch.</desc>
<g id="Welcome" sketch:type="MSPage">
	<g id="Page-1" sketch:type="MSLayerGroup">
		<path id="Fill-1" sketch:type="MSShapeGroup" fill="#221F20" d="M10.566,5.674c0,3.504-3.66,3.784-5.244,3.784
			c-0.79,0-1.372-0.043-1.372-0.043V2.411c0,0,0.749-0.063,2.151-0.063C8.233,2.348,10.566,3.267,10.566,5.674 M15.337,14.893
			c0-4.611-6.414-5.001-6.414-5.001s4.385-1.113,4.385-4.373c0-3.72-4.946-4.314-7.157-4.314H0c0.58,0.231,0.916,0.613,0.916,1.257
			v16.4c0,0.617-0.336,1.003-0.916,1.266h7.003C13.935,20.128,15.337,17.048,15.337,14.893 M12.247,14.605
			c0,4.135-4.727,4.392-6.777,4.392c-0.937,0-1.519-0.054-1.519-0.054v-8.257c0,0,1.6-0.061,2.59-0.061
			C9.265,10.625,12.247,11.344,12.247,14.605"/>
		<path id="Fill-3" sketch:type="MSShapeGroup" fill="#221F20" d="M213.724,5.674c0,3.5-3.653,3.773-5.229,3.773
			c-0.771,0-1.369-0.062-1.369-0.062v-6.98c0,0,0.754-0.057,2.139-0.057C211.414,2.348,213.724,3.267,213.724,5.674 M218.521,14.893
			c0-4.611-6.424-5.001-6.424-5.001s4.374-1.113,4.374-4.373c0-3.72-4.937-4.314-7.136-4.314h-6.168
			c0.602,0.231,0.918,0.613,0.918,1.257v16.4c0,0.612-0.316,1.003-0.918,1.266h7.01C217.11,20.128,218.521,17.054,218.521,14.893
			 M215.426,14.605c0,4.135-4.723,4.388-6.771,4.388c-0.932,0-1.529-0.05-1.529-0.05v-8.262c0,0,1.592-0.056,2.594-0.056
			C212.438,10.625,215.426,11.35,215.426,14.605"/>
		<path id="Fill-5" sketch:type="MSShapeGroup" fill="#221F20" d="M28.887,13.299h-7.288c1.429-2.995,3.624-7.772,3.624-7.772
			S27.206,9.79,28.887,13.299L28.887,13.299z M36.596,20.128c-1.139-0.449-1.373-0.778-1.628-1.371
			c-0.516-1.053-8.875-17.985-8.875-17.985s-8.312,16.932-8.858,17.985c-0.299,0.537-0.595,0.831-1.491,1.371h3.952
			c-0.848-0.286-0.939-0.735-0.682-1.371c0.128-0.327,0.967-2.163,2.037-4.252h8.398c0.984,2.148,1.903,3.925,2.085,4.252
			c0.261,0.636,0.036,1.026-0.814,1.371H36.596z"/>
		<path id="Fill-7" sketch:type="MSShapeGroup" fill="#221F20" d="M55.786,2.496v18.152c0,0-15.434-16.056-15.434-16.334v14.559
			c0,0.605,0.325,0.994,0.902,1.255h-3.26c0.49-0.261,0.842-0.65,0.842-1.255V3.547c0-0.807,0-0.868-0.389-1.306
			c-0.364-0.33-0.754-0.725-1.485-1.01h4.461l12.814,13.528V2.496c0-0.652-0.362-1.039-0.839-1.265h3.259
			C56.142,1.457,55.786,1.844,55.786,2.496"/>
		<path id="Fill-9" sketch:type="MSShapeGroup" fill="#221F20" d="M70.779,13.299h-7.274c1.415-2.995,3.635-7.772,3.635-7.772
			S69.109,9.803,70.779,13.299L70.779,13.299z M78.491,20.128c-1.14-0.449-1.362-0.793-1.622-1.371C76.347,17.704,68,0.772,68,0.772
			s-8.325,16.932-8.863,17.985c-0.299,0.537-0.581,0.844-1.489,1.371h3.935c-0.832-0.286-0.918-0.726-0.663-1.371
			c0.123-0.33,0.961-2.163,2.033-4.247h8.381c1.003,2.143,1.903,3.917,2.104,4.247c0.266,0.636,0.035,1.029-0.806,1.371H78.491z"/>
		<path id="Fill-11" sketch:type="MSShapeGroup" fill="#221F20" d="M97.82,2.496v18.152c0,0-15.438-16.049-15.438-16.325v14.55
			c0,0.605,0.334,0.988,0.897,1.255h-3.254c0.488-0.267,0.84-0.65,0.84-1.255V3.547c0-0.807,0-0.868-0.383-1.306
			C80.118,1.911,79.726,1.516,79,1.24h4.46l12.818,13.519V2.496c0-0.641-0.364-1.03-0.863-1.256h3.276
			C98.169,1.466,97.82,1.855,97.82,2.496"/>
		<path id="Fill-13" sketch:type="MSShapeGroup" fill="#221F20" d="M112.483,13.299h-7.281c1.432-3.005,3.635-7.772,3.635-7.772
			S110.81,9.79,112.483,13.299L112.483,13.299z M120.189,20.128c-1.126-0.449-1.364-0.793-1.612-1.372
			c-0.522-1.054-8.873-17.984-8.873-17.984s-8.32,16.93-8.866,17.984c-0.289,0.524-0.586,0.845-1.486,1.372h3.94
			c-0.834-0.293-0.936-0.735-0.682-1.372c0.139-0.329,0.976-2.183,2.045-4.251h8.382c1.01,2.148,1.895,3.922,2.101,4.251
			c0.253,0.637,0.045,1.023-0.804,1.372H120.189z"/>
		<path id="Fill-15" sketch:type="MSShapeGroup" fill="#221F20" d="M140.7,5.932c0,2.912-2.44,4.168-4.899,4.168
			c-0.834,0-1.889-0.064-1.889-0.064V2.419c0,0,0.98-0.111,2.436-0.111C139.77,2.309,140.7,4.621,140.7,5.932L140.7,5.932z
			 M148.926,20.127c0,0-1.371-0.447-2.067-1.124c-1.394-1.301-4.871-6.391-4.871-6.391c-0.479-0.619-1.397-1.79-3.142-2.103
			c2.017-0.129,4.752-1.666,4.752-4.66c0-1.748-1.021-4.609-7.514-4.609h-6.089c0.49,0.225,0.876,0.577,0.876,1.217v16.415
			c0,0.606-0.386,0.989-0.876,1.255h4.824c-0.478-0.266-0.907-0.649-0.907-1.255v-7.66h1.889c1.68,0,2.369,1.203,3.217,2.316
			c1.123,1.557,2.302,3.251,3.941,5.344c0.495,0.585,1.405,1.326,2.654,1.305L148.926,20.127z"/>
		<path id="Fill-17" sketch:type="MSShapeGroup" fill="#221F20" d="M163.831,20.128h-13.017c0.584-0.267,0.961-0.598,0.961-1.267
			l0.02-16.365c0-0.639-0.396-1.03-0.924-1.264h12.186l0.053,2.151c-0.639-0.643-1.312-0.963-2.701-0.963h-5.568v6.636h5.264
			c0.457,0,0.969-0.449,1.141-0.774v2.697c-0.172-0.331-0.684-0.77-1.141-0.77h-5.264v8.733h3.746
			c3.506-0.034,4.719-0.025,5.93-1.77L163.831,20.128z"/>
		<path id="Fill-19" sketch:type="MSShapeGroup" fill="#221F20" d="M178.808,6.438c0,3.809-3.776,4.335-5.524,4.335
			c-0.672,0-1.275-0.074-1.578-0.19V2.405c0,0,0.676-0.071,2.16-0.071C177.125,2.334,178.808,3.905,178.808,6.438 M181.572,6.385
			c0-2.169-1.146-5.153-7.613-5.153h-6.189c0.499,0.22,0.909,0.626,0.909,1.265l-0.011,16.377c0,0.605-0.414,0.988-0.898,1.254h4.84
			c-0.555-0.266-0.91-0.649-0.91-1.254V11.47c2.477,0.858,5.414,0.219,6.43-0.167C179.125,10.917,181.572,9.419,181.572,6.385"/>
		<path id="Fill-21" sketch:type="MSShapeGroup" fill="#221F20" d="M200.17,2.496v11.636c-0.038,4.548-3.438,6.26-7.479,6.26
			c-3.554,0-8.127-1.519-8.127-6.208V2.496c0-0.641-0.513-1.03-1-1.256h5.178c-0.514,0.226-1.066,0.615-1.066,1.256v11.738
			c0,1.911,0.771,4.866,5.348,4.866c4.334,0,5.744-2.359,5.711-4.866l-0.017-11.738c0-0.641-0.319-1.03-0.845-1.256h3.156
			C200.51,1.466,200.17,1.855,200.17,2.496"/>
		<path id="Fill-23" sketch:type="MSShapeGroup" fill="#221F20" d="M234.198,20.114h-12.897c0.559-0.249,0.909-0.641,0.909-1.265
			V2.496c0-0.653-0.351-1.045-0.909-1.256h4.856c-0.521,0.211-0.866,0.603-0.866,1.256v16.441h3.467
			c3.871-0.036,4.983-0.088,6.076-1.774L234.198,20.114z"/>
		<path id="Fill-25" sketch:type="MSShapeGroup" fill="#221F20" d="M237.67,20.114c0.527-0.249,0.873-0.641,0.873-1.253V2.496
			c0-0.665-0.346-1.045-0.873-1.265h4.809c-0.492,0.22-0.844,0.6-0.844,1.265v16.365c0,0.612,0.352,1.004,0.844,1.253H237.67z"/>
		<path id="Fill-27" sketch:type="MSShapeGroup" fill="#221F20" d="M265.716,18.479c-2.685,1.386-5.751,1.888-8.171,1.888
			c-6.395,0-12.044-3.847-12.044-9.658c0-4.73,4.18-9.774,12.416-9.774c2.677,0,5.114,0.649,7.646,1.596c0,0,0.344,4.225,0.271,4.12
			c-2.057-4.12-6.08-4.537-7.659-4.537c-6.179,0-9.367,3.723-9.367,8.238c0,3.999,2.567,8.789,9.335,8.789
			c1.45,0,5.398-0.081,7.848-4.5C266.062,14.545,265.716,18.479,265.716,18.479"/>
		<path id="Fill-29" sketch:type="MSShapeGroup" fill="#221F20" d="M62.031,32.93h8.396v3.01h-4.753v2.377h4.485v2.932h-4.485v5.387
			h-3.643V32.93z"/>
		<path id="Fill-31" sketch:type="MSShapeGroup" fill="#221F20" d="M89.031,41.518l-1.4-4.525c-0.057-0.211-0.211-0.822-0.459-1.84
			c-0.251,1.018-0.422,1.629-0.48,1.84l-1.38,4.525H89.031z M84.814,32.93h4.676l4.736,13.705h-3.72l-0.689-2.455h-5.31
			l-0.709,2.455h-3.719L84.814,32.93z"/>
		<path id="Fill-33" sketch:type="MSShapeGroup" fill="#221F20" d="M114.688,37.549c-0.996-1.113-1.955-1.648-3.163-1.648
			c-2.166,0-3.603,1.648-3.603,3.967c0,2.109,1.418,3.816,3.603,3.816c1.208,0,2.167-0.537,3.163-1.648v4.082
			c-1.187,0.576-2.319,0.863-3.546,0.863c-4.044,0-6.958-3.049-6.958-7.189c0-4.139,2.914-7.188,6.958-7.188
			c1.227,0,2.359,0.287,3.546,0.861V37.549z"/>
		<path id="Fill-35" sketch:type="MSShapeGroup" fill="#221F20" d="M129.667,36.17h-3.047v-3.24h9.851v3.24h-3.067v10.465h-3.737
			V36.17z"/>
		<path id="Fill-37" sketch:type="MSShapeGroup" fill="#221F20" d="M157.104,39.811c0-2.225-1.495-4.025-3.584-4.025
			c-2.11,0-3.586,1.781-3.586,4.025c0,2.262,1.399,4.025,3.586,4.025C155.647,43.836,157.104,42.053,157.104,39.811 M158.715,44.891
			C157.316,46.25,155.437,47,153.521,47c-1.668,0-3.336-0.596-4.657-1.65c-1.729-1.379-2.664-3.334-2.664-5.539
			c0-1.955,0.745-3.719,2.145-5.08c1.38-1.342,3.261-2.109,5.177-2.109s3.815,0.768,5.194,2.109c1.399,1.361,2.127,3.143,2.127,5.08
			C160.842,41.766,160.095,43.549,158.715,44.891"/>
		<path id="Fill-39" sketch:type="MSShapeGroup" fill="#221F20" d="M175.465,39.408c1.572,0,2.318-0.498,2.318-1.707
			c0-1.438-0.707-1.896-2.258-1.896h-0.748v3.604H175.465z M171.267,32.93h3.912h0.229c1.899,0,3.354,0.018,4.524,0.918
			c0.997,0.768,1.535,1.938,1.535,3.354c0,2.131-1.076,3.492-3.067,3.914l3.737,5.52h-4.218l-3.143-5.367v5.367h-3.511V32.93z"/>
		<path id="Fill-41" sketch:type="MSShapeGroup" fill="#221F20" d="M195.575,40.387l-4.812-7.457h4.313l1.841,3.527
			c0.096,0.189,0.326,0.535,0.461,1.168c0.131-0.613,0.362-0.959,0.479-1.168l1.82-3.527h4.293l-4.793,7.457v6.248h-3.603V40.387z"
			/>
	</g>
</g>
</svg>