<svg width="32" height="26" viewBox="0 0 32 26" fill="none" xmlns="http://www.w3.org/2000/svg">
<g clip-path="url(#clip0)">
<path d="M31.2001 22.4H0.800142C0.358142 22.4 0.000142131 22.758 0.000142131 23.2V24.8C0.000142131 25.242 0.358142 25.6 0.800142 25.6H31.2001C31.6421 25.6 32.0001 25.242 32.0001 24.8V23.2C32.0001 22.758 31.6421 22.4 31.2001 22.4ZM4.02764 17.0635C4.34164 17.4055 4.78264 17.5995 5.24414 17.599L11.7711 17.59C12.2862 17.5893 12.7939 17.4673 13.2531 17.234L27.8011 9.85147C29.1381 9.17297 30.3366 8.20447 31.1521 6.93597C32.0676 5.51197 32.1671 4.48147 31.8056 3.75347C31.4451 3.02497 30.5686 2.48997 28.8931 2.38097C27.4006 2.28397 25.9161 2.67697 24.5791 3.35497L19.6536 5.85447L8.71864 1.75147C8.58717 1.6629 8.43442 1.61105 8.27619 1.6013C8.11797 1.59154 7.96 1.62422 7.81864 1.69597L4.53114 3.36447C3.99764 3.63497 3.86864 4.34697 4.27264 4.79097L12.0836 9.69597L6.92314 12.315L3.30564 10.4915C3.18101 10.4286 3.04335 10.396 2.90377 10.3962C2.7642 10.3963 2.62662 10.4293 2.50214 10.4925L0.495642 11.511C-0.0263578 11.776 -0.163858 12.467 0.217142 12.915L4.02764 17.0635Z" fill="black"/>
</g>
<defs>
<clipPath id="clip0">
<rect width="32" height="25.6" fill="white"/>
</clipPath>
</defs>
</svg>
