<svg version="1.1" id="Layer_1" xmlns="http://www.w3.org/2000/svg" x="0" y="0" viewBox="0 0 115 150" xml:space="preserve"><style>.st0{fill:#002554}</style><g id="Layer_1-2"><path class="st0" d="M99.8 16.8H85.1v1.4H89V101c-.1 1.8-.7 2.4-3.1 2.5h-.8v1.5h16.5v-1.5h-1.7c-2.8-.1-3.8-1.3-3.8-4V66.2h4.8c7 0 11-3.7 11-8.6V26.1c0-4.9-3.4-9.3-12.1-9.3m5.1 42.4c0 2.7-1.6 5.3-4.7 5.3h-4V18.2h3.7c3.5 0 5.1 3.2 5.1 5.7l-.1 35.3zM68.6 99.4l-9.4-82.7H53l-9.1 81.9c-.5 2.9-.8 4.8-5.1 4.8v1.5h11v-1.5c-3.1 0-4.5-2-4.2-4.1l3.7-33.2h8.6l3.8 34.3c0 2.1-.2 2.8-2.5 3h-1.1v1.5h14.7v-1.5h-.4c-2.7-.1-3.6-1.9-3.8-4M49.5 64.6l3.9-35.5 4.4 35.5h-8.3zM22.3 17.9c0 1.4-.8 1.3-1.5.9-2.3-1.7-5.1-2.7-7.9-2.8-4.2 0-10.4 2.1-10.4 11v65.6c.1 11.4 5.6 13.5 11 13.6 4.2 0 6.3-2.2 8-2.9.9-.4 1.9.5 1.9 2.2h1.8V66.2h3.5v-1.6H13.8v1.6h4.3v33.3c0 2.9-2 5.1-4.5 5.1s-4.3-2.3-4.3-5.1V24.3c0-2 .4-6.8 3.6-6.8 2.6 0 4.4 2.6 5.3 6.6.9 4.2 1.4 14.3 1.4 18.5 0 1.4.5 1.9 1.9 1.9h2.8V16.8h-2v1.1zM86.3 122h3.1c1.1 0 1.9.5 1.9 1.6.1.9-.5 1.7-1.4 1.8h-3.6V122zm-3.9 11.9h3.9v-5.4h2.9c1.8 0 2.1 1.5 2.2 3 0 .8.2 1.6.4 2.4h3.8c-.5-.6-.6-2.7-.6-3.4-.1-1.4-.6-3.2-2.2-3.6 1.5-.6 2.4-2.1 2.3-3.7 0-3-2.6-4.2-5.2-4.2h-7.6l.1 14.9zM2.6 133.9h3.8v-5.8h6.1v-3H6.4V122h7.1v-3.1H2.6zM61.8 118.9H49.1v3.3h4.4v11.7h3.9v-11.7h4.4zM14.6 133.9h4l1-2.7h5.2l.9 2.7h4L24.1 119h-3.9l-5.6 14.9zm7.5-10.8l1.7 5.2h-3.4l1.7-5.2zM45.7 123.9c-.1-3.6-3.6-5.6-6.8-5.6-4.5 0-7.4 3.4-7.4 7.7s2.9 7.8 7.4 7.8c3.8 0 6.6-2.2 6.8-6.1h-3.9c0 1.5-1.2 2.8-2.8 2.8h-.2c-2.5 0-3.5-2.2-3.5-4.4s1-4.4 3.5-4.4c1.5-.2 2.8.8 3 2.3h3.9v-.1zM68.1 126.1c0-2.2 1-4.4 3.5-4.4s3.4 2.2 3.4 4.4-1 4.4-3.4 4.4-3.5-2.1-3.5-4.4m-3.9 0c0 4.3 2.6 7.8 7.3 7.8s7.3-3.4 7.3-7.8-2.6-7.7-7.3-7.7-7.3 3.4-7.3 7.7M112.5 118.9h-4.4l-2.9 6.1-3-6.1h-4.4l5.4 9.5v5.5h3.9v-5.5z"/></g></svg>
