<svg viewBox="0 0 392.28 30.35" xmlns="http://www.w3.org/2000/svg"><g fill="#231f20"><path d="m17.46 13.24v2.09h.65a5 5 0 0 1 2.05.27 1.47 1.47 0 0 1 .69.68 6.53 6.53 0 0 1 .25 2.45v7.63a10.81 10.81 0 0 1 -2.28.9 10.34 10.34 0 0 1 -2.8.37 9 9 0 0 1 -4.76-1.43 10.11 10.11 0 0 1 -3.77-4.52 16.24 16.24 0 0 1 -1.47-7 14.53 14.53 0 0 1 2.2-8.07 8.38 8.38 0 0 1 7.52-3.9 8.11 8.11 0 0 1 5.91 2.29 11.43 11.43 0 0 1 2.63 4.67l.15.45h1.9l-.82-10.12h-2v.62a2.1 2.1 0 0 1 -.21 1c-.08.1-.12.1-.14.1a5 5 0 0 1 -1.31-.39 25.33 25.33 0 0 0 -3.62-1.07 15 15 0 0 0 -2.88-.26 14.8 14.8 0 0 0 -7.54 1.87 15.81 15.81 0 0 0 -6 6.4 15.72 15.72 0 0 0 -1.81 7.32 14.46 14.46 0 0 0 3.28 9.34c2.9 3.58 7.18 5.4 12.72 5.4a21.54 21.54 0 0 0 5.27-.61 22.09 22.09 0 0 0 4.79-1.92l.34-.19v-8.88a6.35 6.35 0 0 1 .33-2.67c.17-.32.53-.73 1.62-.73h1.16v-2.09z"/><path d="m53.82.63v2.07h1.7a2.35 2.35 0 0 1 1.88.68c.1.11.41.64.41 2.82v11.24a17.34 17.34 0 0 1 -.73 6 5.78 5.78 0 0 1 -2.66 2.73 9.31 9.31 0 0 1 -4.55 1.1 7.19 7.19 0 0 1 -3.29-.68 5.3 5.3 0 0 1 -2-1.71 7.38 7.38 0 0 1 -1-3 26.6 26.6 0 0 1 -.29-3.61v-12.07a5.3 5.3 0 0 1 .4-2.7 2.12 2.12 0 0 1 1.91-.8h1.72v-2.07h-13.27v2.07h1.7a2.33 2.33 0 0 1 1.79.58c.2.23.54.91.54 2.92v10.85a23.61 23.61 0 0 0 .7 7.06 9.21 9.21 0 0 0 3.58 4.55c1.68 1.12 4.12 1.69 7.27 1.69a12.24 12.24 0 0 0 7-1.76 8.81 8.81 0 0 0 3.51-4.27 20.78 20.78 0 0 0 .86-6.7v-11.26a5.45 5.45 0 0 1 .33-2.59 2.16 2.16 0 0 1 2-1.07h1.67v-2.07z"/><path d="m93.2 21.43-.18.35a14.82 14.82 0 0 1 -2.48 3.66 4.28 4.28 0 0 1 -1.78 1.13 12.08 12.08 0 0 1 -3.22.3h-4.71a3.12 3.12 0 0 1 -1.23-.14.68.68 0 0 1 -.29-.32 7.78 7.78 0 0 1 -.12-2v-8.5h5.45a5.33 5.33 0 0 1 2.29.35 1.91 1.91 0 0 1 .91.83 9.49 9.49 0 0 1 .51 2.39l.08.57h2v-11h-2v.62a4 4 0 0 1 -1 2.86c-.23.2-.89.55-2.73.55h-5.51v-9.62h7a8.62 8.62 0 0 1 2.63.25 2.65 2.65 0 0 1 1.25 1 8.53 8.53 0 0 1 .86 2.78l.07.51h2l-.35-7.37h-22.65v2.07h1.64a2.59 2.59 0 0 1 2 .59c.06.08.37.55.37 2.83v18a9 9 0 0 1 -.19 2.46 1.07 1.07 0 0 1 -.59.63 3.24 3.24 0 0 1 -1.55.39h-1.68v2.1h22.49l2.85-8.27z"/><path d="m121.29 18.49a8.48 8.48 0 0 0 -2.37-2.85 43.52 43.52 0 0 0 -5.41-3.26c-3.08-1.66-5.05-3-5.84-3.94a2.85 2.85 0 0 1 -.73-1.89 3.31 3.31 0 0 1 1.18-2.48 4.28 4.28 0 0 1 3.08-1.07 6.83 6.83 0 0 1 3.33.88 6.26 6.26 0 0 1 2.47 2.3 11.48 11.48 0 0 1 1.23 4.16l.08.57h2v-10.91h-1.94l-.11.52a2 2 0 0 1 -.35.94.54.54 0 0 1 -.42.14 4.27 4.27 0 0 1 -1.35-.46 12.38 12.38 0 0 0 -5-1.14 8.87 8.87 0 0 0 -6.29 2.34 7.5 7.5 0 0 0 -2.47 5.66 7.23 7.23 0 0 0 .85 3.46 9.28 9.28 0 0 0 2.46 2.83 43.43 43.43 0 0 0 5.15 3.24 48.45 48.45 0 0 1 4.28 2.56 5.58 5.58 0 0 1 1.57 1.73 3.74 3.74 0 0 1 .48 1.76 3.49 3.49 0 0 1 -1.27 2.7 5.14 5.14 0 0 1 -3.6 1.19 7.91 7.91 0 0 1 -3.75-.91 6.24 6.24 0 0 1 -2.5-2.23 12.75 12.75 0 0 1 -1.35-4.33l-.1-.54h-2v10.87h2l.08-.56c.11-.74.26-.9.27-.91s.1-.1.33-.1a10 10 0 0 1 2.33.61 25.26 25.26 0 0 0 2.72.77 13.83 13.83 0 0 0 2.38.19 9.51 9.51 0 0 0 6.74-2.46 7.85 7.85 0 0 0 2.68-5.87 7.72 7.72 0 0 0 -.84-3.51z"/><path d="m149.63 18.49a8.48 8.48 0 0 0 -2.37-2.85 43.52 43.52 0 0 0 -5.41-3.26c-3.08-1.66-5-3-5.84-3.94a2.85 2.85 0 0 1 -.73-1.89 3.28 3.28 0 0 1 1.19-2.48 4.26 4.26 0 0 1 3.07-1.07 6.83 6.83 0 0 1 3.33.88 6.26 6.26 0 0 1 2.46 2.35 11.48 11.48 0 0 1 1.23 4.16l.08.57h2v-10.96h-1.95l-.11.52a2 2 0 0 1 -.35.94.54.54 0 0 1 -.42.14 4.36 4.36 0 0 1 -1.35-.46 12.38 12.38 0 0 0 -4.96-1.14 8.83 8.83 0 0 0 -6.28 2.34 7.48 7.48 0 0 0 -2.5 5.66 7.13 7.13 0 0 0 .86 3.46 9.11 9.11 0 0 0 2.42 2.79 43.43 43.43 0 0 0 5.15 3.24 48.45 48.45 0 0 1 4.28 2.56 5.58 5.58 0 0 1 1.57 1.73 3.74 3.74 0 0 1 .48 1.76 3.51 3.51 0 0 1 -1.26 2.7 5.19 5.19 0 0 1 -3.61 1.19 7.93 7.93 0 0 1 -3.75-.91 6.24 6.24 0 0 1 -2.5-2.23 12.75 12.75 0 0 1 -1.36-4.29l-.1-.54h-2v10.87h2l.08-.56a2 2 0 0 1 .27-.91s.1-.1.34-.1a10.16 10.16 0 0 1 2.32.61 25.26 25.26 0 0 0 2.72.77 13.91 13.91 0 0 0 2.38.19 9.51 9.51 0 0 0 6.74-2.46 7.81 7.81 0 0 0 2.72-5.87 7.59 7.59 0 0 0 -.84-3.51z"/><path d="m194.56.63h-21.94v2.07h1.64a3.19 3.19 0 0 1 1.55.4 1.25 1.25 0 0 1 .56.56 8.31 8.31 0 0 1 .22 2.54v17.93c0 2.11-.27 2.65-.35 2.75a2.35 2.35 0 0 1 -2 .75h-1.64v2.07h13.22v-2.07h-1.65a3.26 3.26 0 0 1 -1.57-.41 1.21 1.21 0 0 1 -.57-.55 8.31 8.31 0 0 1 -.22-2.54v-8.06h4.4a3.85 3.85 0 0 1 1.79.3 2 2 0 0 1 .84.86 4.84 4.84 0 0 1 .34 2.08v.69h2.06v-10.75h-2l-.07.58a4.37 4.37 0 0 1 -.87 2.64 3 3 0 0 1 -2.1.59h-4.4v-9.6h5.47a8.83 8.83 0 0 1 3 .36 3.44 3.44 0 0 1 1.46 1.11 7.85 7.85 0 0 1 1.13 2.63l.14.44h1.9z"/><path d="m227.67 27.63a3.74 3.74 0 0 1 -2.26-.77 9.57 9.57 0 0 1 -1.94-3.37l-9.83-23.49h-1.59l-9.93 23.24a12.12 12.12 0 0 1 -2.12 3.76 4 4 0 0 1 -1.91.63l-.55.09v2h10.05v-2h-.61a4.55 4.55 0 0 1 -2.24-.48.76.76 0 0 1 -.36-.6 6.1 6.1 0 0 1 .64-2.16l1.72-4h9.87l1.47 3.52a7.59 7.59 0 0 1 .77 2.6.76.76 0 0 1 -.34.63 3.37 3.37 0 0 1 -1.86.41h-.62v2h12.26v-2zm-12.22-10h-7.56l3.83-8.89z"/><path d="m258.83 21.24-.36.5a15.27 15.27 0 0 1 -4.33 4.41 9 9 0 0 1 -4.45 1.07 9.83 9.83 0 0 1 -5.2-1.38 8.43 8.43 0 0 1 -3.37-3.94 15.55 15.55 0 0 1 -1.12-6.26 19.55 19.55 0 0 1 1.22-7.39 8.75 8.75 0 0 1 3.26-4.17 8.61 8.61 0 0 1 4.64-1.3 8.26 8.26 0 0 1 5.25 1.72 11.38 11.38 0 0 1 3.4 5.78l.14.46h1.82l-.73-10.74h-1.85l-.15.51a2.54 2.54 0 0 1 -.57 1.2.67.67 0 0 1 -.51.21 2.86 2.86 0 0 1 -.93-.38 13.85 13.85 0 0 0 -6.22-1.54 14.57 14.57 0 0 0 -7.47 2 14.26 14.26 0 0 0 -5.37 5.65 16.63 16.63 0 0 0 -1.93 7.94 15.4 15.4 0 0 0 2.94 9.41 13.21 13.21 0 0 0 11.21 5.38 13.07 13.07 0 0 0 7-1.81 15.39 15.39 0 0 0 5.1-5.67l.3-.53z"/><path d="m291 .63h-23.91l-.39 7.82h2.07l.05-.6a5.34 5.34 0 0 1 .79-2.67 3.14 3.14 0 0 1 1.49-1.25 8.61 8.61 0 0 1 2.55-.25h2.68v20.55a5.7 5.7 0 0 1 -.33 2.62 2.23 2.23 0 0 1 -2 .78h-1.6v2.07h13.08v-2.07h-1.62a2.47 2.47 0 0 1 -1.86-.63c-.06-.07-.39-.56-.39-2.76v-20.56h3.26a5.29 5.29 0 0 1 2.46.49 3.45 3.45 0 0 1 1.42 1.48 7.07 7.07 0 0 1 .54 2.23l.07.57h2z"/><path d="m321.16 4.3a13.31 13.31 0 0 0 -9.84-4.3 14 14 0 0 0 -9.8 3.8 14.75 14.75 0 0 0 -4.71 11.26 15.31 15.31 0 0 0 4.08 11 14 14 0 0 0 20.24-.06 15.27 15.27 0 0 0 4.17-11 14.86 14.86 0 0 0 -4.14-10.7zm-1.86 11.25c0 4.21-.8 7.3-2.39 9.2a7.35 7.35 0 0 1 -6 2.82 6.5 6.5 0 0 1 -5.34-2.57c-1.83-2.31-2.76-5.69-2.76-10s.89-7.49 2.66-9.65a6.63 6.63 0 0 1 5.46-2.53 6.89 6.89 0 0 1 5.72 2.54c1.76 2.19 2.65 5.64 2.65 10.19z"/><path d="m359.69 27.63a7.89 7.89 0 0 1 -3.4-1 13.64 13.64 0 0 1 -3.2-3.48l-5.17-7.18a9.5 9.5 0 0 0 4.57-2.62 7.2 7.2 0 0 0 1.83-4.88 6.87 6.87 0 0 0 -1.62-4.55 8.12 8.12 0 0 0 -3.87-2.57 24.09 24.09 0 0 0 -6.71-.68h-10.77v2.03h1.7a2.36 2.36 0 0 1 1.89.69c.07.07.4.56.4 2.81v17.93c0 2-.24 2.53-.32 2.65a2.16 2.16 0 0 1 -2 .85h-1.7v2.07h13.21v-2.07h-1.74a2.27 2.27 0 0 1 -1.85-.69c-.07-.07-.41-.56-.41-2.81v-7.38h1.93l9.39 13h8.39v-2zm-19.13-13.5v-10.35a15.21 15.21 0 0 1 2.56-.28 5.14 5.14 0 0 1 3.88 1.44 5 5 0 0 1 1.4 3.76 4.84 4.84 0 0 1 -1.78 3.88c-1.22 1-3.09 1.56-5.56 1.56h-.5z"/><path d="m381.29.63v2.07h.65a3.44 3.44 0 0 1 1.39.2 1.34 1.34 0 0 1 .57.47 1.14 1.14 0 0 1 .19.66 5.67 5.67 0 0 1 -1.09 2.52l-4.9 7.69-5.24-8.09c-1.06-1.63-1.14-2.18-1.14-2.3a.81.81 0 0 1 .47-.78 2.87 2.87 0 0 1 1.45-.37h1.27v-2.07h-13.21v2.07h.66a2.14 2.14 0 0 1 .9.14 6.39 6.39 0 0 1 1.8 1.09 21.69 21.69 0 0 1 1.76 2.47l7.51 11.46v6.37c0 2-.26 2.5-.34 2.62a2.2 2.2 0 0 1 -1.95.78h-1.64v2.07h13.1v-2.07h-1.56a2.6 2.6 0 0 1 -2-.64c-.09-.11-.4-.62-.4-2.76v-6.77l6.59-10.38a17.43 17.43 0 0 1 2-2.76 5.61 5.61 0 0 1 1.66-1.21 3.46 3.46 0 0 1 1.28-.41h1.19v-2.07z"/></g></svg>