<svg width="1242" height="1136" viewBox="0 0 1242 1136" fill="none" xmlns="http://www.w3.org/2000/svg">
<path d="M936.453 813.937L937.267 813.903L938.07 813.763C1048.76 794.499 1117.04 720.471 1149.96 638.057C1182.6 556.346 1181.31 464.296 1150.59 406.562C1120.55 349.802 1045.58 279.607 962.036 225.232C920.008 197.879 875.247 174.155 832.054 157.919C789.025 141.744 746.688 132.672 709.824 135.556C622.964 142.351 566.499 153.474 525.468 167.823C484.095 182.293 458.956 199.866 434.8 218.412C431.773 220.736 428.771 223.067 425.762 225.403C404.97 241.547 383.787 257.993 351.282 274.618C314.053 293.659 261.605 313.072 178.329 331.289L177.086 331.561L175.923 332.077C96.1053 367.552 56.3603 407.765 48.4159 452.93C40.5602 497.591 64.9775 541.305 98.0914 580.854C127.55 616.038 166.192 650.556 202.006 682.547C206.865 686.887 211.672 691.181 216.397 695.424C236.35 713.341 254.867 730.357 270.192 746.426C285.617 762.599 297.158 777.154 303.699 790.052C334.086 849.964 381.019 905.314 435.694 945.393C490.294 985.418 553.481 1010.82 616.311 1009.25C650 1008.57 673.717 994.841 693.42 975.478C706.62 962.506 718.694 946.179 730.779 929.838C735.864 922.962 740.951 916.084 746.124 909.451C764.164 886.325 784.813 863.803 814.123 846.376C843.349 828.998 881.965 816.234 936.453 813.937Z" stroke="#F2F4F8" stroke-width="25"/>
<g clip-path="url(#clip0)">
<path d="M268.388 803.025C268.388 803.025 231.077 760.964 163.743 787.08C120.966 803.671 100.95 862.496 117.168 904.309C133.385 946.122 181.494 978.523 235.361 957.629C280.514 940.116 282.894 919.889 299.777 881.698C315.797 845.463 318.376 826.267 347.686 814.899C359.916 810.155 391.523 805.741 406.668 844.788C413.914 863.469 406.468 891.263 381.119 901.095C355.769 910.927 339.138 898.474 339.138 898.474" stroke="#F2F4F8" stroke-width="6" stroke-linejoin="round"/>
<path d="M268.388 803.025C268.388 803.025 251.013 783.438 218.581 779.295M404.45 880C399.954 888.971 392.268 896.77 381.119 901.095C355.769 910.927 339.138 898.474 339.138 898.474L404.45 880Z" stroke="#D6E4F0" stroke-width="6" stroke-linejoin="round"/>
</g>
<defs>
<clipPath id="clip0">
<rect width="339.863" height="282.731" fill="white" transform="translate(44 780.9) rotate(-21.1995)"/>
</clipPath>
</defs>
</svg>
