<svg width="32" height="32" viewBox="0 0 32 32" fill="none" xmlns="http://www.w3.org/2000/svg">
<path d="M27.9854 28L28.3288 28.25C28.0998 28.4583 27.9854 28.7083 27.9854 29C27.9854 29.2708 28.0842 29.5052 28.282 29.7031C28.4797 29.901 28.7138 30 28.9844 30H30.639L31.1698 30.4062C30.3581 31.4688 29.2966 32 27.9854 32H4.00879C2.9057 32 1.96391 31.6094 1.18343 30.8281C0.402939 30.0469 0.0126953 29.1042 0.0126953 28V4C0.0126953 2.89583 0.402939 1.95312 1.18343 1.17188C1.96391 0.390625 2.9057 0 4.00879 0H27.9854C29.2966 0 30.3581 0.53125 31.1698 1.59375L30.639 2H28.9844C28.7138 2 28.4797 2.09896 28.282 2.29688C28.0842 2.49479 27.9854 2.72917 27.9854 3C27.9854 3.29167 28.0998 3.54167 28.3288 3.75L27.9854 4L31.9815 7L27.9854 10L31.9815 13L27.9854 16L31.9815 19L27.9854 22L31.9815 25L27.9854 28ZM16.9961 30H18.9942C19.2647 30 19.4989 29.901 19.6966 29.7031C19.8943 29.5052 19.9932 29.2708 19.9932 29C19.9932 28.7292 19.8943 28.4948 19.6966 28.2969C19.4989 28.099 19.2647 28 18.9942 28H16.9961C16.7255 28 16.4914 28.099 16.2937 28.2969C16.0959 28.4948 15.9971 28.7292 15.9971 29C15.9971 29.2708 16.0959 29.5052 16.2937 29.7031C16.4914 29.901 16.7255 30 16.9961 30ZM21.9912 24C23.0943 24 24.0361 23.6094 24.8166 22.8281C25.5971 22.0469 25.9873 21.1042 25.9873 20C25.9873 18.8958 25.5971 17.9531 24.8166 17.1719C24.0361 16.3906 23.0943 16 21.9912 16C20.8881 16 19.9464 16.3906 19.1659 17.1719C18.3854 17.9531 17.9951 18.8958 17.9951 20C17.9951 21.1042 18.3854 22.0469 19.1659 22.8281C19.9464 23.6094 20.8881 24 21.9912 24ZM11.002 30H13C13.2706 30 13.5047 29.901 13.7025 29.7031C13.9002 29.5052 13.999 29.2708 13.999 29C13.999 28.7292 13.9002 28.4948 13.7025 28.2969C13.5047 28.099 13.2706 28 13 28H11.002C10.7314 28 10.4972 28.099 10.2995 28.2969C10.1018 28.4948 10.0029 28.7292 10.0029 29C10.0029 29.2708 10.1018 29.5052 10.2995 29.7031C10.4972 29.901 10.7314 30 11.002 30ZM5.00782 30H7.00587C7.27644 30 7.51058 29.901 7.7083 29.7031C7.90603 29.5052 8.00489 29.2708 8.00489 29C8.00489 28.7292 7.90603 28.4948 7.7083 28.2969C7.51058 28.099 7.27644 28 7.00587 28H5.00782C4.73725 28 4.5031 28.099 4.30538 28.2969C4.10765 28.4948 4.00879 28.7292 4.00879 29C4.00879 29.2708 4.10765 29.5052 4.30538 29.7031C4.5031 29.901 4.73725 30 5.00782 30ZM2.01074 26C2.01074 26.2708 2.10961 26.5052 2.30733 26.7031C2.50505 26.901 2.7392 27 3.00977 27C3.28034 27 3.51448 26.901 3.71221 26.7031C3.90993 26.5052 4.00879 26.2708 4.00879 26V24C4.00879 23.7292 3.90993 23.4948 3.71221 23.2969C3.51448 23.099 3.28034 23 3.00977 23C2.7392 23 2.50505 23.099 2.30733 23.2969C2.10961 23.4948 2.01074 23.7292 2.01074 24V26ZM2.01074 20C2.01074 20.2708 2.10961 20.5052 2.30733 20.7031C2.50505 20.901 2.7392 21 3.00977 21C3.28034 21 3.51448 20.901 3.71221 20.7031C3.90993 20.5052 4.00879 20.2708 4.00879 20V18C4.00879 17.7292 3.90993 17.4948 3.71221 17.2969C3.51448 17.099 3.28034 17 3.00977 17C2.7392 17 2.50505 17.099 2.30733 17.2969C2.10961 17.4948 2.01074 17.7292 2.01074 18V20ZM2.01074 14C2.01074 14.2708 2.10961 14.5052 2.30733 14.7031C2.50505 14.901 2.7392 15 3.00977 15C3.28034 15 3.51448 14.901 3.71221 14.7031C3.90993 14.5052 4.00879 14.2708 4.00879 14V12C4.00879 11.7292 3.90993 11.4948 3.71221 11.2969C3.51448 11.099 3.28034 11 3.00977 11C2.7392 11 2.50505 11.099 2.30733 11.2969C2.10961 11.4948 2.01074 11.7292 2.01074 12V14ZM3.00977 5C2.7392 5 2.50505 5.09896 2.30733 5.29688C2.10961 5.49479 2.01074 5.72917 2.01074 6V8C2.01074 8.27083 2.10961 8.50521 2.30733 8.70312C2.50505 8.90104 2.7392 9 3.00977 9C3.28034 9 3.51448 8.90104 3.71221 8.70312C3.90993 8.50521 4.00879 8.27083 4.00879 8V6C4.00879 5.72917 3.90993 5.49479 3.71221 5.29688C3.51448 5.09896 3.28034 5 3.00977 5ZM7.00587 2H5.00782C4.73725 2 4.5031 2.09896 4.30538 2.29688C4.10765 2.49479 4.00879 2.72917 4.00879 3C4.00879 3.27083 4.10765 3.50521 4.30538 3.70312C4.5031 3.90104 4.73725 4 5.00782 4H7.00587C7.27644 4 7.51058 3.90104 7.7083 3.70312C7.90603 3.50521 8.00489 3.27083 8.00489 3C8.00489 2.72917 7.90603 2.49479 7.7083 2.29688C7.51058 2.09896 7.27644 2 7.00587 2ZM13 2H11.002C10.7314 2 10.4972 2.09896 10.2995 2.29688C10.1018 2.49479 10.0029 2.72917 10.0029 3C10.0029 3.27083 10.1018 3.50521 10.2995 3.70312C10.4972 3.90104 10.7314 4 11.002 4H13C13.2706 4 13.5047 3.90104 13.7025 3.70312C13.9002 3.50521 13.999 3.27083 13.999 3C13.999 2.72917 13.9002 2.49479 13.7025 2.29688C13.5047 2.09896 13.2706 2 13 2ZM12.001 8C10.8979 8 9.95611 8.39062 9.17562 9.17188C8.39513 9.95312 8.00489 10.8958 8.00489 12C8.00489 13.1042 8.39513 14.0469 9.17562 14.8281C9.95611 15.6094 10.8979 16 12.001 16C13.1041 16 14.0459 15.6094 14.8264 14.8281C15.6068 14.0469 15.9971 13.1042 15.9971 12C15.9971 10.8958 15.6068 9.95312 14.8264 9.17188C14.0459 8.39062 13.1041 8 12.001 8ZM18.9942 2H16.9961C16.7255 2 16.4914 2.09896 16.2937 2.29688C16.0959 2.49479 15.9971 2.72917 15.9971 3C15.9971 3.27083 16.0959 3.50521 16.2937 3.70312C16.4914 3.90104 16.7255 4 16.9961 4H18.9942C19.2647 4 19.4989 3.90104 19.6966 3.70312C19.8943 3.50521 19.9932 3.27083 19.9932 3C19.9932 2.72917 19.8943 2.49479 19.6966 2.29688C19.4989 2.09896 19.2647 2 18.9942 2ZM21.5385 8.14062C21.32 8.00521 21.0859 7.96875 20.8361 8.03125C20.5864 8.09375 20.3886 8.25 20.2429 8.5L12.1259 22.5312C12.001 22.7604 11.9698 23.0104 12.0322 23.2812C12.0946 23.5521 12.2403 23.7552 12.4693 23.8906C12.6982 24.026 12.9376 24.0573 13.1873 23.9844C13.4371 23.9115 13.6244 23.7604 13.7493 23.5312L21.8976 9.46875C22.0225 9.23958 22.0485 8.99479 21.9756 8.73438C21.9028 8.47396 21.7571 8.27604 21.5385 8.14062ZM24.9883 2H22.9903C22.7197 2 22.4855 2.09896 22.2878 2.29688C22.0901 2.49479 21.9912 2.72917 21.9912 3C21.9912 3.27083 22.0901 3.50521 22.2878 3.70312C22.4855 3.90104 22.7197 4 22.9903 4H24.9883C25.2589 4 25.493 3.90104 25.6907 3.70312C25.8885 3.50521 25.9873 3.27083 25.9873 3C25.9873 2.72917 25.8885 2.49479 25.6907 2.29688C25.493 2.09896 25.2589 2 24.9883 2ZM24.9883 28H22.9903C22.7197 28 22.4855 28.099 22.2878 28.2969C22.0901 28.4948 21.9912 28.7292 21.9912 29C21.9912 29.2708 22.0901 29.5052 22.2878 29.7031C22.4855 29.901 22.7197 30 22.9903 30H24.9883C25.2589 30 25.493 29.901 25.6907 29.7031C25.8885 29.5052 25.9873 29.2708 25.9873 29C25.9873 28.7292 25.8885 28.4948 25.6907 28.2969C25.493 28.099 25.2589 28 24.9883 28ZM12.0166 14C11.4651 14 10.9916 13.8021 10.5961 13.4062C10.2007 13.0104 10.0029 12.5365 10.0029 11.9844C10.0029 11.4323 10.2007 10.9635 10.5961 10.5781C10.9916 10.1927 11.4651 10 12.0166 10C12.5681 10 13.0364 10.1927 13.4215 10.5781C13.8065 10.9635 13.999 11.4323 13.999 11.9844C13.999 12.5365 13.8065 13.0104 13.4215 13.4062C13.0364 13.8021 12.5681 14 12.0166 14ZM22.0068 18C22.5584 18 23.0267 18.1927 23.4117 18.5781C23.7968 18.9635 23.9893 19.4323 23.9893 19.9844C23.9893 20.5365 23.7968 21.0104 23.4117 21.4062C23.0267 21.8021 22.5584 22 22.0068 22C21.4553 22 20.9818 21.8021 20.5864 21.4062C20.1909 21.0104 19.9932 20.5365 19.9932 19.9844C19.9932 19.4323 20.1909 18.9635 20.5864 18.5781C20.9818 18.1927 21.4553 18 22.0068 18Z" fill="#FC1212"/>
</svg>
